<svg xmlns="http://www.w3.org/2000/svg" viewBox="0 0 48 48"><defs><style>.cls-3{fill:#ffde76}.cls-4{fill:#c4455e}.cls-5{fill:#fc6}</style></defs><g id="ticket_discount" data-name="ticket discount"><path d="M47 17v14a3 3 0 0 0-3 3H4a3 3 0 0 0-3-3V17a3 3 0 0 0 3-3h40a3 3 0 0 0 3 3z" style="fill:#db5669"/><path d="M47 17v14a2.94 2.94 0 0 0-2.23 1H7a4 4 0 0 1-4-4V16.23A2.94 2.94 0 0 0 4 14h40a3 3 0 0 0 3 3z" style="fill:#f26674"/><path class="cls-3" d="M41 19H25a1 1 0 0 1 0-2h16a1 1 0 0 1 0 2zM41 23H25a1 1 0 0 1 0-2h16a1 1 0 0 1 0 2zM41 27H25a1 1 0 0 1 0-2h16a1 1 0 0 1 0 2zM41 31H25a1 1 0 0 1 0-2h16a1 1 0 0 1 0 2z"/><path class="cls-4" d="M22 14v2a1 1 0 0 1-2 0v-2zM20 22v-2a1 1 0 0 1 2 0v2a1 1 0 0 1-2 0zM20 28v-2a1 1 0 0 1 2 0v2a1 1 0 0 1-2 0zM22 32v2h-2v-2a1 1 0 0 1 2 0z"/><path class="cls-3" d="M7 30a1 1 0 0 1-.71-1.71l10-10a1 1 0 0 1 1.42 1.42C6.88 30.53 7.6 30 7 30z"/><path class="cls-5" d="M11 20a2 2 0 1 1-2.82-1.82A2 2 0 0 1 11 20z"/><path class="cls-3" d="M10.82 20.82a2 2 0 0 1-2.64-2.64 2 2 0 0 1 2.64 2.64z"/><path class="cls-5" d="M17 28a2 2 0 1 1-2.82-1.82A2 2 0 0 1 17 28z"/><path class="cls-3" d="M16.82 28.82a2 2 0 0 1-2.64-2.64 2 2 0 0 1 2.64 2.64z"/></g></svg>